<?xml version="1.0" encoding="UTF-8" standalone="no"?>
<!-- Created with Inkscape (http://www.inkscape.org/) -->

<svg
   xmlns:dc="http://purl.org/dc/elements/1.1/"
   xmlns:cc="http://creativecommons.org/ns#"
   xmlns:rdf="http://www.w3.org/1999/02/22-rdf-syntax-ns#"
   xmlns:svg="http://www.w3.org/2000/svg"
   xmlns="http://www.w3.org/2000/svg"
   xmlns:sodipodi="http://sodipodi.sourceforge.net/DTD/sodipodi-0.dtd"
   xmlns:inkscape="http://www.inkscape.org/namespaces/inkscape"
   width="240.52774mm"
   height="43.900631mm"
   viewBox="0 0 240.52774 43.900631"
   version="1.1"
   id="svg8"
   inkscape:version="0.92.4 (5da689c313, 2019-01-14)"
   sodipodi:docname="parallel-port.svg">
  <defs
     id="defs2" />
  <sodipodi:namedview
     id="base"
     pagecolor="#ffffff"
     bordercolor="#666666"
     borderopacity="1.0"
     inkscape:pageopacity="0.0"
     inkscape:pageshadow="2"
     inkscape:zoom="0.49497475"
     inkscape:cx="35.355621"
     inkscape:cy="43.041711"
     inkscape:document-units="mm"
     inkscape:current-layer="layer1"
     showgrid="false"
     fit-margin-top="0"
     fit-margin-left="0"
     fit-margin-right="0"
     fit-margin-bottom="0"
     inkscape:window-width="1920"
     inkscape:window-height="1017"
     inkscape:window-x="-8"
     inkscape:window-y="-8"
     inkscape:window-maximized="1" />
  <metadata
     id="metadata5">
    <rdf:RDF>
      <cc:Work
         rdf:about="">
        <dc:format>image/svg+xml</dc:format>
        <dc:type
           rdf:resource="http://purl.org/dc/dcmitype/StillImage" />
        <dc:title></dc:title>
      </cc:Work>
    </rdf:RDF>
  </metadata>
  <g
     inkscape:label="Layer 1"
     inkscape:groupmode="layer"
     id="layer1"
     transform="translate(-45.734272,-122.62911)">
    <path
       style="fill:#000000;stroke-width:0.61858618"
       d="m 77.439663,164.82818 c -0.66596,-0.92492 -3.337526,-4.18697 -5.936818,-7.24895 l -4.725982,-5.56727 -2.963553,-11.03021 -2.963556,-11.03019 3.62302,-3.66122 3.623023,-3.66123 h 98.710673 98.71069 l 3.68467,3.57624 3.6847,3.57622 -3.09293,11.18522 -3.09294,11.18521 -5.72626,6.78699 -5.72626,6.78701 -63.19386,0.41137 c -34.75663,0.22631 -74.49111,0.4026 -88.29883,0.39191 l -25.104967,-0.0187 z m 181.832417,-7.29473 5.42847,-6.54094 2.75604,-10.25253 2.75602,-10.25255 -2.68822,-2.68822 -2.68821,-2.68821 -98.02582,-0.0117 -98.025816,-0.0117 -2.667445,2.66743 -2.667446,2.66745 2.810597,10.35234 2.810599,10.35231 5.398694,6.47329 5.39869,6.47326 h 86.987687 86.98769 z m -178.147247,1.46369 c -3.17184,-1.81906 -3.7735,-5.74228 -1.26529,-8.25049 1.95597,-1.95596 4.68494,-1.97609 6.92291,-0.0512 4.47715,3.85109 -0.5516,11.22987 -5.65762,8.30157 z m 4.51568,-2.4695 c 0.95417,-0.95417 0.95417,-3.1285 0,-4.08267 -1.17622,-1.17623 -4.07746,-0.90189 -4.80321,0.4542 -0.86998,1.62556 -0.80817,2.25882 0.33171,3.39869 1.1537,1.15369 3.43057,1.27069 4.4715,0.22982 z m 9.62258,1.75034 c -3.55917,-3.06147 -1.20743,-9.04967 3.55406,-9.04967 3.503957,0 5.890807,4.08496 4.501817,7.70461 -0.46003,1.19882 -3.395487,2.81136 -5.117807,2.81136 -0.67837,0 -2.0005,-0.65985 -2.93807,-1.4663 z m 5.575057,-2.31667 c 1.2747,-1.81989 0.41294,-3.89392 -1.723807,-4.14871 -2.04555,-0.2439 -3.45274,0.82621 -3.45274,2.62572 0,2.86597 3.51213,3.89928 5.176547,1.52299 z m 9.71698,2.18151 c -1.44929,-1.2195 -1.90322,-2.11141 -1.90322,-3.73964 0,-4.8849 5.77397,-7.00398 8.91451,-3.27165 2.09862,2.49409 2.0358,4.56204 -0.20668,6.80457 -2.24251,2.24253 -4.31048,2.30535 -6.80456,0.20667 z m 5.39611,-1.61518 c 1.01456,-1.01458 0.93427,-3.27698 -0.14823,-4.17535 -0.48976,-0.40648 -1.67281,-0.64932 -2.629,-0.53969 -3.17056,0.36355 -2.52852,5.45734 0.68785,5.45734 0.74086,0 1.68105,-0.33405 2.08931,-0.7423 z m 9.68368,1.69829 c -2.17674,-2.17673 -2.12208,-5.9586 0.11152,-7.71555 4.37019,-3.43758 10.07049,0.90829 7.91513,6.03444 -1.39904,3.3273 -5.51786,4.18994 -8.02668,1.68111 z m 5.98158,-2.42423 c 0.95948,-2.1058 -0.23146,-4.09903 -2.44929,-4.09903 -2.04025,0 -3.19488,1.006 -3.19488,2.78362 0,2.97712 4.41791,4.00676 5.64417,1.31541 z m 9.1543,2.1344 c -2.3292,-2.3292 -2.39265,-4.86166 -0.17745,-7.07697 2.32606,-2.32606 5.18726,-2.21906 7.28369,0.2724 0.8808,1.04677 1.60146,2.59918 1.60146,3.4498 0,2.07412 -3.14569,5.16295 -5.25799,5.16295 -0.98966,0 -2.35975,-0.71813 -3.44981,-1.80818 z m 5.49115,-1.40846 c 0.95417,-0.95417 0.95417,-3.1285 0,-4.08267 -0.40828,-0.40828 -1.32687,-0.7423 -2.04135,-0.7423 -2.46921,0 -3.77646,3.08983 -2.04132,4.82497 0.40826,0.40825 1.32686,0.7423 2.04132,0.7423 0.71448,0 1.63307,-0.33405 2.04135,-0.7423 z m 10.76683,2.5686 c -1.9063,-0.76505 -3.3979,-4.37098 -2.63647,-6.37368 2.06194,-5.42338 9.93235,-4.02579 9.93235,1.76373 0,3.98452 -3.43933,6.15771 -7.29588,4.60995 z m 4.69781,-2.5686 c 0.95417,-0.95417 0.95417,-3.1285 0,-4.08267 -1.23227,-1.23229 -4.08009,-0.89694 -4.86684,0.5731 -1.07932,2.01671 0.17137,4.25187 2.37925,4.25187 0.9599,0 2.07934,-0.33405 2.48759,-0.7423 z m 9.35494,1.40846 c -2.24252,-2.24253 -2.30534,-4.31048 -0.20667,-6.80457 2.04546,-2.43088 4.90762,-2.5828 7.2777,-0.38628 2.36761,2.1942 2.25665,5.27454 -0.26643,7.39757 -2.49407,2.09863 -4.56204,2.03581 -6.80455,-0.20668 z m 5.58381,-1.55664 c 0.40645,-0.48976 0.64932,-1.67281 0.53967,-2.629 -0.36353,-3.17055 -5.45732,-2.52853 -5.45732,0.68786 0,2.59764 3.29377,3.89778 4.91765,1.94114 z m 10.85631,2.65052 c -3.19864,-1.74952 -3.80824,-5.74037 -1.26531,-8.28333 1.95557,-1.95557 4.68495,-1.97609 6.9218,-0.0521 4.50988,3.87925 -0.44753,11.18445 -5.65649,8.33538 z m 4.88905,-3.73349 c 0.74768,-2.13882 -0.37704,-3.59382 -2.77799,-3.59382 -2.69221,0 -3.90384,2.75826 -2.0333,4.62879 1.51848,1.51848 4.11386,0.9602 4.81129,-1.03497 z m 9.37224,3.05598 c -2.42161,-2.13103 -2.66191,-4.76744 -0.65222,-7.15581 2.17908,-2.58969 5.23367,-2.72557 7.45238,-0.33155 2.19651,2.37007 2.04459,5.23225 -0.38628,7.27771 -2.34021,1.96915 -4.34013,2.03452 -6.41388,0.20972 z m 5.48926,-2.05461 c 1.81952,-1.81949 0.59999,-4.59519 -2.0189,-4.59519 -2.04025,0 -3.1949,1.006 -3.1949,2.78362 0,2.6466 3.24968,3.77572 5.2138,1.81157 z m 10.56016,2.69928 c -4.75792,-2.72867 -3.03461,-9.76883 2.39125,-9.76883 1.6282,0 2.52013,0.45394 3.73962,1.90322 2.09862,2.49409 2.0358,4.56204 -0.20668,6.80457 -1.89859,1.89859 -3.85327,2.2487 -5.92414,1.06104 z m 4.51568,-2.4695 c 1.01456,-1.01458 0.93428,-3.27698 -0.14822,-4.17535 -0.48976,-0.40648 -1.67279,-0.64932 -2.629,-0.53969 -3.17056,0.36355 -2.52853,5.45734 0.68786,5.45734 0.74085,0 1.68104,-0.33405 2.08932,-0.7423 z m 9.74564,1.82483 c -0.86989,-0.76552 -1.75307,-2.28536 -1.96263,-3.37745 -0.31857,-1.66026 -0.0729,-2.29378 1.49955,-3.86617 2.38091,-2.38091 5.10712,-2.51689 7.26181,-0.3622 4.59805,4.59805 -1.92461,11.89502 -6.79873,7.60582 z m 4.95997,-1.55594 c 2.16128,-1.47993 1.134,-5.09386 -1.44793,-5.09386 -2.0792,0 -3.23658,0.99541 -3.23658,2.78362 0,2.30617 2.72665,3.65085 4.68451,2.31024 z m 10.11398,1.13957 c -1.92997,-1.92994 -2.24879,-3.63175 -1.08856,-5.81017 1.06443,-1.99856 2.44607,-2.85589 4.63801,-2.87794 2.33214,-0.0234 5.15832,2.89861 5.15832,5.33334 0,2.07412 -3.14566,5.16295 -5.25797,5.16295 -0.98966,0 -2.35975,-0.71813 -3.4498,-1.80818 z m 5.49113,-1.40846 c 0.95417,-0.95417 0.95417,-3.1285 0,-4.08267 -1.21532,-1.21532 -4.07933,-0.89841 -4.84719,0.53633 -1.44278,2.6959 2.68074,5.71277 4.84719,3.54634 z M 72.726337,140.61569 c -2.27223,-2.27224 -2.377181,-4.82025 -0.291248,-7.071 3.008774,-3.24652 8.074014,-1.62096 8.784834,2.81925 0.31709,1.98073 0.11155,2.54623 -1.51769,4.17547 -2.42486,2.42486 -4.6035,2.44868 -6.975896,0.0762 z m 5.842716,-1.97478 c 1.52539,-2.17781 0.42023,-3.94938 -2.46377,-3.94938 -2.174842,0 -2.422448,0.16529 -2.602829,1.73853 -0.109651,0.95618 0.133217,2.13924 0.539684,2.62899 1.083992,1.30613 3.473795,1.08538 4.526915,-0.41814 z m 9.71698,2.18151 c -1.44929,-1.21951 -1.90322,-2.11144 -1.90322,-3.73965 0,-4.88491 5.77397,-7.00397 8.91451,-3.27165 0.8808,1.04678 1.60146,2.31323 1.60146,2.81435 0,1.73516 -1.92188,4.61698 -3.47213,5.20639 -2.33171,0.8865 -3.05655,0.74417 -5.14062,-1.00944 z m 5.16634,-1.84496 c 1.97813,-1.97815 0.77025,-4.59522 -2.12087,-4.59522 -1.8579,0 -3.09293,1.0198 -3.09293,2.55387 0,1.40678 1.64904,3.0134 3.09293,3.0134 0.63184,0 1.58623,-0.43743 2.12087,-0.97205 z m 9.584677,1.63823 c -1.92995,-1.92996 -2.24878,-3.63174 -1.08854,-5.81016 2.60385,-4.88894 9.79633,-3.21697 9.79633,2.27724 0,1.62821 -0.45393,2.52014 -1.90322,3.73965 -2.49407,2.09862 -4.56204,2.0358 -6.80457,-0.20668 z m 5.58382,-1.55664 c 0.40646,-0.48975 0.64932,-1.67281 0.53968,-2.62899 -0.36355,-3.17056 -5.45733,-2.52853 -5.45733,0.68785 0,2.59764 3.29377,3.89779 4.91765,1.94114 z m 9.97589,1.76337 c -2.45961,-2.06962 -2.62044,-5.16061 -0.38488,-7.39617 2.78671,-2.78672 7.19324,-1.56459 8.59001,2.38238 0.61294,1.73213 -1.17647,5.30538 -3.00496,6.00057 -2.39546,0.91075 -3.10512,0.77609 -5.20017,-0.98678 z m 5.39609,-1.61521 c 0.95417,-0.95417 0.95417,-3.1285 0,-4.08267 -1.35247,-1.35244 -4.16286,-0.89605 -4.93638,0.80167 -0.58126,1.27571 -0.50858,1.75929 0.41843,2.78362 1.25551,1.38733 3.39273,1.6226 4.51795,0.49738 z m 10.65188,2.42211 c -4.70815,-2.3822 -2.98021,-9.72142 2.28879,-9.72142 4.83365,0 6.9261,5.79504 3.21882,8.91452 -2.11995,1.78382 -3.24973,1.94934 -5.50761,0.8069 z m 4.65689,-3.18478 c 1.33792,-2.0419 0.29706,-4.0623 -2.0928,-4.0623 -2.04023,0 -3.19488,1.00602 -3.19488,2.78365 0,2.9525 3.61774,3.82731 5.28768,1.27865 z m 9.60585,2.37788 c -3.68998,-3.10491 -1.60877,-8.94098 3.17201,-8.89486 5.07955,0.0491 7.13956,6.10929 3.14477,9.25158 -2.12843,1.67424 -4.03081,1.56679 -6.31678,-0.35672 z m 5.39609,-1.61521 c 1.01458,-1.01458 0.9343,-3.27698 -0.14823,-4.17534 -0.48978,-0.40646 -1.67281,-0.64933 -2.62899,-0.53968 -3.17056,0.36356 -2.52853,5.45732 0.68785,5.45732 0.74086,0 1.68105,-0.33402 2.0893,-0.7423 z m 10.94899,2.50235 c -1.99702,-1.09228 -2.78365,-2.46663 -2.78365,-4.86336 0,-4.5061 5.17905,-6.61995 8.37902,-3.41995 2.55245,2.55244 1.88845,6.5376 -1.37925,8.27798 -1.65626,0.88213 -2.61085,0.88335 -4.21612,0.005 z m 4.2859,-2.7321 c 1.97816,-1.97815 0.77027,-4.59522 -2.12086,-4.59522 -1.97693,0 -3.09293,1.03796 -3.09293,2.87663 0,2.41923 3.3943,3.53809 5.21379,1.71859 z m 9.5847,1.63823 c -2.30711,-2.3071 -2.41814,-5.06115 -0.28984,-7.18944 3.2092,-3.20921 8.99763,-0.98985 8.99763,3.4498 0,2.46302 -2.92365,5.54782 -5.25799,5.54782 -0.98966,0 -2.35975,-0.71812 -3.4498,-1.80818 z m 5.79819,-1.96225 c 0.33959,-0.54273 0.42787,-1.74202 0.19616,-2.66509 -0.37606,-1.49833 -0.66775,-1.65785 -2.72008,-1.48755 -2.00483,0.16646 -2.32436,0.41309 -2.49821,1.92926 -0.10965,0.95618 0.14495,2.15329 0.56565,2.66025 0.95178,1.14687 3.62978,0.88434 4.45644,-0.43687 z m 10.24358,2.8324 c -3.2591,-1.77052 -3.49355,-6.44252 -0.43094,-8.58765 3.26214,-2.28489 7.94302,-0.1377 7.94302,3.64342 0,2.92114 -0.51657,3.94197 -2.51859,4.97726 -2.14443,1.10892 -2.90062,1.10392 -4.99349,-0.033 z m 4.68425,-2.50838 c 1.97815,-1.97815 0.77026,-4.59522 -2.12086,-4.59522 -2.89113,0 -4.09901,2.61707 -2.12086,4.59522 1.24153,1.2415 3.00021,1.2415 4.24172,0 z m 10.07248,2.20168 c -3.99478,-3.14229 -1.93478,-9.20255 3.14477,-9.25158 4.68248,-0.0451 6.68225,5.27293 3.26705,8.68813 -2.12112,2.12114 -4.19938,2.30376 -6.41182,0.56345 z m 5.09601,-2.12009 c 0.40648,-0.48975 0.64935,-1.67281 0.5397,-2.62899 -0.18143,-1.58266 -0.42119,-1.73853 -2.6737,-1.73853 -2.25251,0 -2.49219,0.15594 -2.67369,1.73853 -0.24394,2.12762 0.81342,3.51945 2.67369,3.51945 0.76725,0 1.72755,-0.4007 2.134,-0.89046 z m 10.85631,2.61768 c -1.98044,-1.1358 -2.7429,-2.49575 -2.76396,-4.9299 -0.014,-1.73453 0.36743,-2.57929 1.61022,-3.55686 4.47526,-3.52025 10.53751,1.15311 7.96044,6.13662 -1.41697,2.74011 -4.35682,3.75514 -6.8067,2.35014 z m 4.28593,-2.69927 c 2.01248,-2.01247 0.76314,-4.59522 -2.22281,-4.59522 -2.38987,0 -3.43073,2.0204 -2.09281,4.0623 1.13057,1.72547 2.90406,1.94446 4.31562,0.53292 z m 9.5847,1.63823 c -2.24253,-2.24252 -2.30535,-4.3105 -0.20668,-6.80457 3.05728,-3.63336 8.91451,-1.61955 8.91451,3.06493 0,2.46302 -2.92362,5.54782 -5.25796,5.54782 -0.98966,0 -2.35975,-0.71812 -3.4498,-1.80818 z m 5.9264,-1.90586 c 0.92701,-1.02433 0.99969,-1.50791 0.41843,-2.78362 -1.25731,-2.75955 -5.67868,-1.79434 -5.67868,1.23968 0,2.80548 3.25419,3.76061 5.26025,1.54394 z m 9.69841,2.16739 c -1.51298,-1.27312 -1.96835,-2.15091 -1.96835,-3.79445 0,-4.88491 5.77397,-7.00397 8.91451,-3.27165 1.96915,2.34021 2.03452,4.3401 0.20972,6.41385 -2.13101,2.42162 -4.76741,2.66194 -7.15578,0.65225 z m 5.33096,-1.67001 c 0.95417,-0.95417 0.95417,-3.1285 0,-4.08267 -1.35244,-1.35244 -4.16284,-0.89605 -4.93638,0.80167 -0.58126,1.27571 -0.50855,1.75929 0.41843,2.78362 1.25551,1.38733 3.39273,1.6226 4.51795,0.49738 z m -209.576964,5.85985 c -3.660017,-1.02286 -5.970203,-4.34917 -5.261522,-7.57577 1.08511,-4.94047 7.291323,-6.74169 10.876381,-3.15663 3.415332,3.41532 1.856603,9.18467 -2.831222,10.47924 -1.020666,0.28185 -2.273304,0.39577 -2.783637,0.25316 z m 4.20262,-3.41268 c 0.488676,-0.40557 0.734193,-1.66589 0.622047,-3.19321 -0.151009,-2.05655 -0.501738,-2.67421 -1.896338,-3.3396 -4.599854,-2.19467 -8.333661,3.53781 -4.346921,6.67377 1.717334,1.35087 3.889314,1.2964 5.621212,-0.14098 z m 222.199894,2.77893 c -1.29467,-0.64675 -2.61158,-1.99496 -3.27577,-3.35365 -0.99871,-2.04291 -1.02089,-2.4871 -0.22,-4.4039 1.86721,-4.46883 7.04795,-5.64095 10.3478,-2.3411 3.27596,3.27596 2.12942,8.47989 -2.2736,10.31961 -2.5062,1.04715 -1.99009,1.07205 -4.57843,-0.22094 z m 5.28609,-2.9092 c 0.83509,-0.8351 1.51836,-2.10038 1.51836,-2.81175 0,-1.66896 -2.66116,-4.33012 -4.33011,-4.33012 -1.66894,0 -4.3301,2.66116 -4.3301,4.33012 0,1.66893 2.66116,4.33009 4.3301,4.33009 0.71137,0 1.97667,-0.68327 2.81175,-1.51834 z"
       id="path4529"
       inkscape:connector-curvature="0" />
  </g>
</svg>
